{"title":"The Deer Hunter.1978.DvDRip.XVid.Swe_Sub.avi","uid":5491231,"size":1475585386,"categoryP":"video","categoryS":"movies","magnet":"?xt=urn:btih:3174f9ee354f8c39a4449fb67ddf7604ed7cf5b9&amp;dn=The+Deer+Hunter.1978.DvDRip.XVid.Swe_Sub.avi&amp;tr=udp%3A%2F%2Ftracker.openbittorrent.com%3A80&amp;tr=udp%3A%2F%2Fopen.demonii.com%3A1337&amp;tr=udp%3A%2F%2Ftracker.coppersurfer.tk%3A6969&amp;tr=udp%3A%2F%2Fexodus.desync.com%3A6969","seeders":1,"leechers":0,"uploader":"Zen_Bud","files":-1,"time":1271011240,"description":"General\nComplete name                    : The Deer Hunter.avi\nFormat                           : AVI\nFile size                        : 1.37 GiB\nDuration                         : 2h 56mn\nOverall bit rate                 : 1 118 Kbps\n\nVideo\nID                               : 0\nFormat                           : MPEG-4 Visual\nCodec ID/Hint                    : XviD\nDuration                         : 2h 56mn\nBit rate                         : 977 Kbps\nWidth                            : 702 pixels\nHeight                           : 434 pixels\nDisplay aspect ratio             : 2.25:1\nFrame rate                       : 25.000 fps\nResolution                       : 8 bits\nColorimetry                      : 4:2:0\nScan type                        : Progressive\nBits/(Pixel*Frame)               : 0.128\nStream size                      : 1.20 GiB (87%)\nWriting library                  : XviD 1.1.2 (UTC 2006-11-01)\n\nAudio\nID                               : 1\nFormat                           : MPEG Audio\nFormat_Settings_ModeExtension    : MS Stereo\nCodec ID                         : 55\nCodec ID/Hint                    : MP3\nDuration                         : 2h 55mn\nBit rate mode                    : Constant\nBit rate                         : 128 Kbps\nChannel(s)                       : 2 channels\nSampling rate                    : 48.0 KHz\nStream size                      : 161 MiB (11%)\nInterleave, duration             : 24 ms (0.60 video frame)\n\n","torrent":{"xt":"urn:btih:3174f9ee354f8c39a4449fb67ddf7604ed7cf5b9","amp;dn":"The+Deer+Hunter.1978.DvDRip.XVid.Swe_Sub.avi","amp;tr":["udp%3A%2F%2Ftracker.openbittorrent.com%3A80","udp%3A%2F%2Fopen.demonii.com%3A1337","udp%3A%2F%2Ftracker.coppersurfer.tk%3A6969","udp%3A%2F%2Fexodus.desync.com%3A6969"],"infoHash":"3174f9ee354f8c39a4449fb67ddf7604ed7cf5b9","infoHashBuffer":{"type":"Buffer","data":[49,116,249,238,53,79,140,57,164,68,159,182,125,223,118,4,237,124,245,185]},"announce":[],"urlList":[]}}